<svg width="48" height="48" viewBox="0 0 48 48" fill="none" xmlns="http://www.w3.org/2000/svg">
<rect width="48" height="48" rx="24" fill="#D0D792"/>
<path d="M12.0256 33H8.07102L14.0966 15.5455H18.8523L24.8693 33H20.9148L16.5426 19.5341H16.4062L12.0256 33ZM11.7784 26.1392H21.1193V29.0199H11.7784V26.1392ZM26.0102 33V15.5455H32.8965C34.2147 15.5455 35.3397 15.7812 36.2715 16.2528C37.209 16.7187 37.9221 17.3807 38.4107 18.2386C38.9051 19.0909 39.1522 20.0937 39.1522 21.2472C39.1522 22.4062 38.9022 23.4034 38.4022 24.2386C37.9022 25.0682 37.1778 25.7045 36.2289 26.1477C35.2857 26.5909 34.1437 26.8125 32.8028 26.8125H28.192V23.8466H32.2062C32.9107 23.8466 33.496 23.75 33.9619 23.5568C34.4278 23.3636 34.7744 23.0739 35.0016 22.6875C35.2346 22.3011 35.3511 21.821 35.3511 21.2472C35.3511 20.6676 35.2346 20.179 35.0016 19.7812C34.7744 19.3835 34.4249 19.0824 33.9534 18.8778C33.4874 18.6676 32.8994 18.5625 32.1891 18.5625H29.7005V33H26.0102ZM35.4363 25.0568L39.7744 33H35.7005L31.4562 25.0568H35.4363Z" fill="#4C68F8"/>
</svg>
