<svg width="496" height="165" viewBox="0 0 496 165" fill="none" xmlns="http://www.w3.org/2000/svg">
<path d="M31.6386 93.8911C71.4731 114.719 152.829 128.935 267.309 128.068C419.782 126.913 520.428 91.9298 482.545 54.7834C453.312 26.118 332.844 18.4924 226.012 23.3524M31.6386 93.8911C18.4181 86.9786 9.77117 79.3379 6.00474 71.2786C-6.50117 44.5188 65.9351 13.9901 226.012 23.3524M31.6386 93.8911C13.0789 68.1085 50.4634 41.8932 137.485 30.7232C163.99 27.321 194.404 24.7903 226.012 23.3524M31.6386 93.8911C37.8382 102.503 50.2799 111.067 69.1989 119.006C125.305 142.549 260.932 156.113 382.645 141.937M226.012 23.3524C259.409 25.3057 296.62 28.9953 337.671 34.8177" stroke="#D0D792" stroke-width="9.25"/>
</svg>
