<svg width="849" height="176" viewBox="0 0 849 176" fill="none" xmlns="http://www.w3.org/2000/svg">
<path d="M54.7435 103.084C124.913 125.55 266.006 140.261 462.907 137.988C725.156 134.961 895.584 95.2972 827.494 54.8476C774.95 23.6331 567.08 16.6269 383.649 23.2062M54.7435 103.084C31.4552 95.6279 15.979 87.3176 8.86722 78.4903C-14.7464 49.1806 107.493 14.7446 383.649 23.2062M54.7435 103.084C20.7904 74.9197 83.059 45.6348 231.91 32.3383C277.247 28.2885 329.378 25.1528 383.649 23.2062M54.7435 103.084C66.0849 112.492 88.1627 121.775 121.336 130.295C219.715 155.562 454.132 168.93 662.436 151.925M383.649 23.2062C441.263 24.9716 505.577 28.6042 576.664 34.5401" stroke="#D0D792" stroke-width="12"/>
</svg>
