<svg width="286" height="199" viewBox="0 0 286 199" fill="none" xmlns="http://www.w3.org/2000/svg">
<path d="M47.5032 70.8001C49.8271 70.1375 50.8231 68.7461 51.4428 66.692C54.0987 58.1002 59.0343 50.7894 64.833 44.0309C73.4869 33.9151 83.9777 26.008 95.3317 19.161C107.527 11.8061 120.452 6.17396 134.396 3.05971C147.277 0.18842 160.335 -0.430014 173.46 0.254679C188.621 1.04981 203.56 3.36894 218.168 7.54335C226.954 10.0613 235.431 13.3964 243.067 18.5205C251.699 24.3073 258.648 31.618 262.654 41.2921C263.894 44.2738 264.757 47.4985 265.244 50.7011C266.218 57.04 264.026 62.363 259.113 66.4932C253.89 70.8664 247.715 73.1855 241.075 74.312C230.296 76.1452 219.828 74.6212 209.912 70.3584C206.238 68.7903 203.936 69.1436 201.613 72.1916C200.351 73.8702 198.735 75.2617 197.097 76.9624C205.685 85.0462 210.2 95.1178 212.369 106.956C213.299 106.007 213.94 105.388 214.516 104.704C218.81 99.8444 223.48 95.427 228.836 91.7385C234.125 88.0942 239.747 85.1787 246.232 84.2952C253.226 83.3455 259.843 84.6486 265.952 88.0942C276.708 94.1681 283.193 103.356 285.252 115.504C287.244 127.32 285.207 138.651 279.763 149.186C269.936 168.159 255.616 182.803 236.405 192.499C222.97 199.279 208.916 200.671 194.331 197.071C178.993 193.272 165.094 186.513 152.611 176.861C151.836 176.265 151.084 175.691 150.088 174.918C149.712 175.691 149.402 176.375 149.07 177.038C147.122 180.969 143.293 181.698 140.195 178.606C138.955 177.369 137.937 175.889 137.052 174.365C133.82 168.822 131.873 162.77 130.124 156.652C129.283 153.692 128.796 150.6 126.716 148.126C126.45 147.817 126.162 147.508 125.609 146.867C125.1 148.347 124.68 149.452 124.325 150.6C120.939 161.798 116.69 172.621 110.869 182.803C109.032 186.005 106.973 189.12 104.716 192.057C101.927 195.701 98.2533 198.043 93.5611 198.551C89.4223 198.992 85.6598 197.822 82.2071 195.657C77.7806 192.896 74.2836 189.164 71.4064 184.857C66.5815 177.634 63.3944 169.705 61.9779 161.158C61.6238 159.081 60.7606 158.22 58.8572 157.602C50.3362 154.885 42.5898 150.688 35.9942 144.57C29.1331 138.231 24.3746 130.589 22.3827 121.401C20.1252 110.932 22.4934 101.258 27.7388 92.1361C30.9923 86.5039 35.0425 81.4902 39.8896 77.1612C41.2618 75.9243 41.6159 74.7758 41.2397 73.0309C40.0666 67.3104 38.96 61.5899 36.614 56.2007C35.5959 53.8816 34.3122 51.5846 32.7408 49.6188C29.952 46.107 26.433 45.7316 22.6262 48.139C20.3465 49.5747 18.598 51.5625 17.093 53.7933C13.8616 58.6082 11.7148 63.9311 10.254 69.5191C6.88987 82.3737 5.9603 95.4491 6.73495 108.679C7.1776 116.1 8.10717 123.455 10.2098 130.611C11.25 134.167 12.5116 137.679 14.7691 140.705C16.097 142.472 17.4914 144.129 19.8596 144.681C21.4531 145.056 22.095 146.227 21.94 147.618C21.7851 149.076 20.6785 150.026 18.9964 150.114C16.9381 150.247 15.2117 149.363 13.6403 148.126C9.76711 145.078 7.26613 141.081 5.45125 136.597C3.08307 130.744 1.95431 124.56 1.15753 118.331C-0.65734 104.218 -0.347486 90.1262 2.1535 76.1231C3.63638 67.8184 5.98244 59.7788 10.3204 52.4681C12.8657 48.139 15.9864 44.3401 20.5236 41.9547C26.1452 39.0171 31.8776 39.746 36.3926 44.1634C37.9419 45.6874 39.2477 47.5206 40.4208 49.398C42.7226 53.1086 44.0505 57.2388 45.1793 61.4353C45.9982 64.5054 46.6843 67.5975 47.4811 70.8001H47.5032ZM179.259 185.387C179.458 185.365 179.657 185.343 179.856 185.321C179.657 185.321 179.436 185.365 179.236 185.365C179.391 184.062 178.196 183.885 177.466 183.377C170.605 178.628 164.275 173.327 159.184 166.635C156.108 162.593 153.718 158.198 152.589 153.206C152.522 152.919 152.367 152.654 152.257 152.367C151.836 153.361 151.726 154.289 151.681 155.238C151.526 158.507 151.526 161.776 151.217 165.001C151.062 166.613 151.504 167.607 152.699 168.601C159.826 174.608 167.528 179.711 175.983 183.664C177.09 184.172 178.174 184.79 179.259 185.343V185.387ZM58.9679 64.395L59.4327 64.8809C59.8532 64.7925 60.2737 64.7704 60.6721 64.6379C69.835 61.4795 79.1528 61.4132 88.36 63.9974C91.5028 64.8809 93.5169 64.3729 95.9072 62.3188C99.9132 58.8512 104.539 56.4879 110.094 56.5099C110.891 56.5099 111.754 56.024 112.485 55.5823C114.831 54.1687 117.088 52.5785 119.456 51.2091C133.665 42.9486 148.738 40.1657 164.917 44.053C174.544 46.3721 183.552 50.171 192.228 54.8093C196.124 56.8854 200.041 58.9174 203.959 60.9715C204.468 60.6181 204.822 60.3752 205.154 60.1322C209.381 56.9296 213.586 53.7049 217.814 50.5023C218.433 50.0385 219.142 49.5968 219.85 49.3096C221.045 48.8237 222.129 49.155 222.97 50.0827C223.834 51.0324 223.944 52.3576 223.125 53.5061C222.506 54.3454 221.753 55.1406 220.934 55.7811C218.389 57.8352 215.777 59.8009 213.21 61.8108C212.48 62.3851 211.793 63.0256 210.864 63.8207C211.838 64.2404 212.457 64.5496 213.099 64.7925C217.415 66.449 221.842 67.6859 226.423 68.216C235.033 69.232 243.399 68.3927 251.145 64.152C258.161 60.3089 260.485 56.002 258.029 47.123C257.984 46.9463 257.896 46.7917 257.851 46.6371C255.97 40.8062 252.717 35.8145 248.512 31.3972C241.518 24.0422 232.908 19.2494 223.413 16.0247C201.635 8.62561 179.17 5.7764 156.241 6.63779C147.742 6.94701 139.331 8.22804 131.098 10.4809C112.994 15.4725 96.9253 24.3956 82.3178 36.0133C75.014 41.8222 68.6177 48.5587 63.5272 56.3995C61.8451 58.9837 60.4508 61.7225 58.9458 64.395H58.9679ZM211.594 141.059C209.536 147.751 207.81 154.068 205.663 160.208C203.981 165.023 201.9 169.727 199.775 174.388C199.067 175.956 197.916 177.436 196.611 178.562C194.486 180.439 191.741 179.909 190.258 177.502C189.705 176.618 189.329 175.58 189.152 174.564C188.864 172.842 188.687 171.052 188.643 169.308C188.444 161.025 189.838 152.963 192.14 145.034C192.45 143.996 192.671 142.936 192.981 141.633C181.184 141.964 169.83 142.295 158.1 142.627C158.277 145.432 158.299 147.905 158.631 150.313C159.45 156.343 162.659 161.202 166.621 165.575C174.589 174.343 184.017 181.08 195.106 185.387C205.596 189.451 216.397 190.644 227.375 187.75C242.846 183.664 254.354 174.189 262.986 161.025C263.982 159.501 264.668 157.712 265.244 155.967C266.24 152.963 265.465 150.313 262.92 148.436C261.238 147.199 259.334 146.161 257.409 145.299C253.248 143.466 248.777 142.693 244.306 142.163C235.055 141.059 225.781 140.948 216.486 141.081C214.826 141.103 213.144 141.081 211.572 141.081L211.594 141.059ZM271.817 150.136C272.216 149.606 272.525 149.297 272.725 148.921C277.638 140.065 280.028 130.589 279.409 120.429C278.966 112.986 276.531 106.227 271.485 100.64C264.956 93.4171 256.988 89.4415 246.984 90.6563C242.691 91.1863 238.84 92.9975 235.21 95.2282C226.799 100.397 220.093 107.398 214.272 115.283C213.719 116.056 213.586 117.227 213.52 118.243C213.343 121.247 213.343 124.25 213.166 127.232C213.033 129.595 212.789 131.937 212.568 134.587C213.52 134.587 214.294 134.587 215.069 134.587C223.546 134.808 232.045 134.896 240.522 135.272C246.276 135.515 251.964 136.487 257.431 138.364C263.584 140.462 269.183 143.333 271.773 150.114L271.817 150.136ZM119.81 134.83C119.478 133.814 119.323 133.306 119.146 132.82C116.159 124.803 114.388 116.542 114.277 107.994C114.189 102.274 114.543 96.5314 114.698 90.8109C114.72 89.6844 115.008 88.5801 114.167 87.542C110.138 82.5283 105.291 78.4864 99.8025 75.3721C99.4706 75.5267 99.2714 75.5709 99.1607 75.6813C87.9616 87.299 79.7504 100.794 74.0623 115.835C73.5754 117.094 74.0181 117.845 75.014 118.508C78.1126 120.562 81.0784 122.815 84.3097 124.626C93.6054 129.838 103.698 132.688 114.189 134.189C115.915 134.432 117.664 134.587 119.833 134.852L119.81 134.83ZM195.482 135.139C195.947 134.123 196.279 133.306 196.699 132.533C199.156 127.939 201.303 123.146 204.18 118.839C206.305 115.636 206.924 112.677 206.238 108.966C204.711 100.485 202.033 92.5557 196.544 85.7751C195.46 84.4278 194.176 83.213 192.627 81.5565C192.029 82.3737 191.675 82.9921 191.232 83.5222C184.083 91.8489 177.399 100.529 171.357 109.673C166.953 116.343 163.257 123.345 160.778 130.965C160.269 132.511 159.937 134.101 159.428 136.023C171.667 135.736 183.508 135.448 195.504 135.161L195.482 135.139ZM121.271 62.8931C122.643 61.2365 123.706 59.6905 125.012 58.3873C128.575 54.8976 133.001 54.3013 137.472 56.5099C139.973 57.7468 141.987 59.58 143.714 61.7666C146.303 65.0797 148.14 68.7903 149.446 72.7438C152.877 83.1688 152.943 93.7484 150.685 104.372C148.472 114.797 143.714 124.14 137.76 132.908C137.184 133.77 136.609 134.631 135.834 135.824C139.641 136.111 143.028 136.221 146.458 136.111C146.591 135.183 146.679 134.587 146.746 133.969C147.742 124.471 149.313 115.084 151.991 105.896C154.359 97.702 157.569 89.9053 162.593 82.9258C165.204 79.3036 168.259 76.1231 172.11 73.804C177.776 70.4026 183.729 69.8062 189.904 72.3683C190.546 72.6334 191.188 72.8322 191.852 73.0751C194.242 70.5793 196.544 68.1939 199.023 65.6318C196.411 64.2404 194.087 63.0035 191.763 61.7666C183.818 57.4818 175.717 53.5061 166.953 51.1649C159.383 49.1329 151.726 48.0286 143.846 49.1329C135.281 50.3477 127.557 53.7049 120.253 58.1885C119.589 58.5861 118.992 59.072 118.261 59.58C119.346 60.7506 120.297 61.7666 121.315 62.8489L121.271 62.8931ZM119.965 141.412C102.436 139.601 85.9254 134.963 71.4507 123.963C68.4628 133.77 67.0242 143.4 67.666 153.626C71.5392 154.333 75.2575 155.128 78.9979 155.658C85.1507 156.563 91.3479 156.851 97.5007 155.724C105.579 154.244 112.352 150.202 118.505 144.99C119.545 144.106 119.855 143.002 119.965 141.434V141.412ZM68.2636 160.362C69.0161 163.123 69.503 165.332 70.2113 167.474C72.5573 174.564 75.7665 181.235 81.2333 186.513C83.1146 188.324 85.3057 189.937 87.6296 191.107C91.6577 193.139 95.6637 192.3 98.7623 189.053C100.267 187.463 101.595 185.652 102.768 183.819C108.213 175.293 112.241 166.105 115.605 156.608C115.738 156.254 115.672 155.835 115.738 155.194C114.72 155.768 113.945 156.166 113.193 156.608C108.943 159.037 104.473 160.848 99.6697 161.82C91.2151 163.565 82.8047 162.858 74.3943 161.445C72.5794 161.135 70.7646 160.804 68.2857 160.362H68.2636ZM131.74 129.33C131.983 129.375 132.227 129.419 132.47 129.463C134.374 126.194 136.388 122.991 138.158 119.656C144.4 107.84 147.078 95.3608 145.064 82.0424C144.267 76.7415 142.629 71.7499 139.685 67.2221C138.313 65.1238 136.698 63.2906 134.374 62.1642C133.112 61.5678 131.828 61.3912 130.567 62.1642C128.088 63.7103 127.092 66.2944 125.897 68.7461C125.144 70.2922 125.565 71.6395 126.052 73.0751C126.428 74.2457 126.738 75.4384 127.026 76.6532C128.885 84.4277 129.261 92.3569 129.704 100.308C130.08 106.912 130.412 113.538 130.832 120.142C131.032 123.212 131.43 126.26 131.74 129.33ZM42.8554 83.6326C42.1471 84.0744 41.9036 84.1627 41.7266 84.3394C36.5033 89.7507 32.2981 95.8025 29.8414 102.959C27.2961 110.424 27.3625 117.867 30.284 125.244C34.1351 134.985 41.1954 141.787 50.1591 146.845C50.646 147.11 51.2215 147.265 51.7748 147.486C50.7788 143.378 49.7165 139.49 48.9418 135.537C46.3966 122.616 45.4449 109.474 44.1612 96.3767C43.7628 92.2686 43.3201 88.1604 42.8554 83.6547V83.6326ZM87.4304 70.3363C86.368 70.0492 85.7262 69.8504 85.0622 69.6958C76.1649 67.7522 67.5332 68.4589 59.1007 72.0149C56.9317 72.9426 56.0021 74.1132 55.8472 76.4765C55.0061 88.7568 58.6802 99.6235 65.9839 109.364C66.2938 109.783 66.5151 110.269 66.7807 110.711C71.9597 96.1117 77.6035 82.3295 87.4304 70.3143V70.3363ZM187.027 78.2876C184.261 77.0507 181.671 77.0728 179.082 77.7575C176.071 78.5526 173.681 80.3417 171.49 82.4399C167.617 86.1947 164.895 90.7225 162.659 95.5595C158.056 105.432 155.776 115.946 154.16 126.614C154.05 127.32 153.961 128.005 153.872 128.712C153.806 129.308 153.806 129.905 153.762 130.501C160.49 110.38 173.902 94.5656 187.027 78.2876ZM58.2154 144.239C58.7244 142.649 59.1892 141.368 59.5433 140.065C61.2475 133.505 62.8411 126.901 64.6338 120.341C65.0765 118.751 64.7224 117.735 63.66 116.586C58.9236 111.374 55.316 105.432 52.7929 98.8726C52.1068 97.1056 51.5535 95.2724 50.8231 93.13C49.8271 101.567 55.2053 138.916 58.2375 144.239H58.2154ZM133.798 142.649C134.064 145.454 134.285 148.215 136.166 150.534C138.446 153.339 140.681 156.166 142.961 158.971C143.426 159.545 144.023 159.987 144.931 160.848C145.263 154.509 145.551 148.701 145.86 142.627H133.798V142.649ZM112.307 63.5778C109.696 65.8085 107.106 68.0172 104.495 70.248C108.523 73.4727 112.285 76.4544 116.159 79.5465C116.823 76.8519 117.486 74.312 118.062 71.772C118.173 71.2861 118.217 70.6676 118.018 70.2259C116.778 67.5755 115.229 65.1459 112.307 63.5998V63.5778ZM200.063 141.522C197.031 150.313 195.15 158.971 195.415 168.049C199.421 159.589 202.431 150.799 204.49 141.522H200.063ZM121.006 100.419C119.965 106.493 121.448 119.811 123.352 122.837C124.038 115.129 123.684 107.663 121.006 100.419ZM206.792 128.049C204.955 129.993 203.936 132.202 202.83 134.852C204.158 134.742 204.999 134.675 205.951 134.609C206.238 132.29 206.504 130.17 206.792 128.071V128.049ZM140.593 165.862C141.213 168.976 142.341 171.008 143.891 172.002C145.13 168.778 142.098 167.96 140.593 165.862ZM48.9197 78.6852C49.0303 78.6189 49.1189 78.5747 49.2074 78.5305C49.141 78.5085 49.0746 78.4422 49.0304 78.4643C48.9861 78.4864 48.9639 78.5747 48.9197 78.6852ZM122.179 86.7248C122.134 86.5923 122.09 86.4597 122.024 86.3051C121.979 86.3493 121.869 86.4156 121.869 86.4597C121.869 86.5923 121.869 86.7469 121.913 86.8794C122.002 86.8131 122.09 86.769 122.179 86.7027V86.7248Z" fill="#D0D792"/>
</svg>
