<svg width="195" height="205" viewBox="0 0 195 205" fill="none" xmlns="http://www.w3.org/2000/svg">
<path d="M69.8202 87.9284C98.4021 90.6952 106.426 113.081 88.4012 118.476M22.7588 115.988C24.8373 123.868 31.9819 132.063 48.4307 138.528C64.0143 144.653 74.1469 143.184 80.3455 138.66M22.7588 115.988C15.7048 125.267 9.58233 146.997 41.1648 158.374C48.9491 161.178 55.2863 162.121 60.4145 161.774M22.7588 115.988C20.4136 107.095 25.598 97.7027 30.1238 92.4995M80.3455 138.66C87.0773 133.747 89.0132 124.808 88.4012 118.476M80.3455 138.66C80.4697 147.583 76.0925 160.712 60.4145 161.774M144.122 107.623C141.642 106.473 139.512 105.14 137.687 103.652M59.7424 161.172C59.9652 161.374 60.1892 161.575 60.4145 161.774M137.687 103.652C113.102 83.6103 145.144 33.3778 117.196 23.2216C88.491 12.7907 88.5746 76.1248 88.5746 76.1248C73.7286 66.4162 42.3316 56.2129 32.24 75.6833C29.0802 81.7797 28.6394 87.4256 30.1238 92.4995M137.687 103.652C137.687 103.652 144.859 95.6065 152.984 98.6358C182.518 109.646 133.313 199.94 111.036 195.768C94.5462 192.681 96.0777 178.438 96.0777 178.438M96.0777 178.438C101.223 178.857 105.966 178.247 110.309 176.672M96.0777 178.438C84.9649 177.533 71.2951 171.389 60.4145 161.774M30.1238 92.4995C36.0924 112.902 69.3318 124.184 88.4012 118.476" stroke="#4C68F8" stroke-width="8.98876"/>
</svg>
